<svg xmlns="http://www.w3.org/2000/svg" xmlns:xlink="http://www.w3.org/1999/xlink" width="1224" height="371.36"><rect width="1224" height="371.36" rx="0" ry="0" class="a"/><svg height="347.36" viewBox="0 0 120 34.736" width="1200" x="12" xmlns="http://www.w3.org/2000/svg" xmlns:xlink="http://www.w3.org/1999/xlink" y="12"><style>@keyframes Y{0%{transform:translateX(0)}33%{transform:translateX(-120px)}41.9%{transform:translateX(-240px)}45.3%{transform:translateX(-360px)}67.9%{transform:translateX(-1080px)}68%{transform:translateX(-1200px)}95.7%{transform:translateX(-1440px)}95.8%{transform:translateX(-1680px)}99.4%{transform:translateX(-1800px)}99.9%{transform:translateX(-1920px)}to{transform:translateX(-2040px)}}.a{fill:#282d35}.c,.d{fill:#b9c0cb;white-space:pre}.d{fill:#667de9}.e,.f,.g,.h,.i,.j{fill:#677ae5;white-space:pre}.f,.g,.h,.i,.j{fill:#677ae4}.g,.h,.i,.j{fill:#6879e3}.h,.i,.j{fill:#6878e1}.i,.j{fill:#6877e0}.j{fill:#6876df}.k,.l,.m,.n,.o,.p{fill:#6975dd;white-space:pre}.l,.m,.n,.o,.p{fill:#6974dc}.m,.n,.o,.p{fill:#6973db}.n,.o,.p{fill:#6a72d9}.o,.p{fill:#6a71d8}.p{fill:#6a70d7}.q,.r,.s,.t,.u,.v{fill:#6c6bd0;white-space:pre}.r,.s,.t,.u,.v{fill:#6c6bcf}.s,.t,.u,.v{fill:#6c6ace}.t,.u,.v{fill:#6d68cc}.u,.v{fill:#6d68cb}.v{fill:#6d67ca}.A,.B,.w,.x,.y,.z{fill:#6e66c8;white-space:pre}.A,.B,.x,.y,.z{fill:#6e64c5}.A,.B,.y,.z{fill:#6f63c3}.A,.B,.z{fill:#6f62c2}.A,.B{fill:#6f61c1}.B{fill:#6f60bf}.C,.D,.E,.F,.G,.H{fill:#705ebd;white-space:pre}.D,.E,.F,.G,.H{fill:#705dbb}.E,.F,.G,.H{fill:#715cb9}.F,.G,.H{fill:#715bb8}.G,.H{fill:#715ab7}.H{fill:#7259b5}.I,.J,.K,.L,.M,.N{fill:#7258b4;white-space:pre}.J,.K,.L,.M,.N{fill:#7257b3}.K,.L,.M,.N{fill:#7451ab}.L,.M,.N{fill:#7451aa}.M,.N{fill:#754fa8}.N{fill:#764ca4}.O,.P,.R,.S,.V,.W{fill:#764ba2;white-space:pre}.P,.R,.S,.V,.W{fill:#6e65c7}.R,.S,.V,.W{fill:#7452ac}.S,.V,.W{fill:#754fa7}.V,.W{fill:#667de8}.W{fill:#677ce7}</style><g font-family="Monaco,Consolas,Menlo,'Bitstream Vera Sans Mono','Powerline Symbols',monospace" font-size="1.67"><defs><symbol id="1"><text y="1.67" class="c">⠙</text></symbol><symbol id="2"><text x="1.002" y="1.67" class="d">╦</text><text x="5.01" y="1.67" class="e">╔</text><text x="6.012" y="1.67" class="f">═</text><text x="7.014" y="1.67" class="g">╗</text><text x="9.018" y="1.67" class="h">╔</text><text x="10.02" y="1.67" class="i">═</text><text x="11.022" y="1.67" class="j">╗</text><text x="13.026" y="1.67" class="k">╦</text><text x="14.028" y="1.67" class="l">═</text><text x="15.03" y="1.67" class="m">╗</text><text x="17.034" y="1.67" class="n">╔</text><text x="18.036" y="1.67" class="o">╗</text><text x="19.038" y="1.67" class="p">╔</text><text x="26.052" y="1.67" class="q">╔</text><text x="27.054" y="1.67" class="r">═</text><text x="28.056" y="1.67" class="s">╗</text><text x="30.06" y="1.67" class="t">╔</text><text x="31.062" y="1.67" class="u">╗</text><text x="32.064" y="1.67" class="v">╔</text><text x="34.068" y="1.67" class="w">╦</text><text x="36.072" y="1.67" class="x">╦</text><text x="38.076" y="1.67" class="y">╔</text><text x="39.078" y="1.67" class="z">╦</text><text x="40.08" y="1.67" class="A">╗</text><text x="42.084" y="1.67" class="B">╦</text><text x="44.088" y="1.67" class="C">╦</text><text x="46.092" y="1.67" class="D">╦</text><text x="48.096" y="1.67" class="E">╔</text><text x="49.098" y="1.67" class="F">╗</text><text x="50.1" y="1.67" class="G">╔</text><text x="52.104" y="1.67" class="H">╔</text><text x="53.106" y="1.67" class="I">═</text><text x="54.108" y="1.67" class="J">╗</text><text x="62.124" y="1.67" class="K">═</text><text x="63.126" y="1.67" class="L">╗</text><text x="65.13" y="1.67" class="M">╦</text><text x="69.138" y="1.67" class="N">╦</text><text x="71.142" y="1.67" class="O">╦</text></symbol><symbol id="3"><text x="1.002" y="1.67" class="d">║</text><text x="5.01" y="1.67" class="e">║</text><text x="6.012" y="1.67" class="f">╣</text><text x="9.018" y="1.67" class="h">╠</text><text x="10.02" y="1.67" class="i">═</text><text x="11.022" y="1.67" class="j">╣</text><text x="13.026" y="1.67" class="k">╠</text><text x="14.028" y="1.67" class="l">╦</text><text x="15.03" y="1.67" class="m">╝</text><text x="17.034" y="1.67" class="n">║</text><text x="18.036" y="1.67" class="o">║</text><text x="19.038" y="1.67" class="p">║</text><text x="26.052" y="1.67" class="q">╠</text><text x="27.054" y="1.67" class="r">═</text><text x="28.056" y="1.67" class="s">╣</text><text x="30.06" y="1.67" class="t">║</text><text x="31.062" y="1.67" class="u">║</text><text x="32.064" y="1.67" class="v">║</text><text x="34.068" y="1.67" class="w">╚</text><text x="35.07" y="1.67" class="P">╦</text><text x="36.072" y="1.67" class="x">╝</text><text x="39.078" y="1.67" class="z">║</text><text x="42.084" y="1.67" class="B">╠</text><text x="43.086" y="1.67" style="white-space:pre" fill="#705fbe">═</text><text x="44.088" y="1.67" class="C">╣</text><text x="46.092" y="1.67" class="D">║</text><text x="48.096" y="1.67" class="E">║</text><text x="49.098" y="1.67" class="F">║</text><text x="50.1" y="1.67" class="G">║</text><text x="52.104" y="1.67" class="H">║</text><text x="54.108" y="1.67" class="J">╦</text><text x="61.122" y="1.67" class="R">╔</text><text x="62.124" y="1.67" class="K">═</text><text x="63.126" y="1.67" class="L">╝</text><text x="65.13" y="1.67" class="M">╚</text><text x="66.132" y="1.67" class="S">╬</text><text x="67.134" y="1.67" style="white-space:pre" fill="#754ea6">╝</text><text x="69.138" y="1.67" class="N">╠</text><text x="70.14" y="1.67" style="white-space:pre" fill="#764ca3">═</text><text x="71.142" y="1.67" class="O">╣</text></symbol><symbol id="4"><text x="1.002" y="1.67" class="d">╩</text><text x="2.004" y="1.67" class="V">═</text><text x="3.006" y="1.67" class="W">╝</text><text x="5.01" y="1.67" class="e">╚</text><text x="6.012" y="1.67" class="f">═</text><text x="7.014" y="1.67" class="g">╝</text><text x="9.018" y="1.67" class="h">╩</text><text x="11.022" y="1.67" class="j">╩</text><text x="13.026" y="1.67" class="k">╩</text><text x="14.028" y="1.67" class="l">╚</text><text x="15.03" y="1.67" class="m">═</text><text x="17.034" y="1.67" class="n">╝</text><text x="18.036" y="1.67" class="o">╚</text><text x="19.038" y="1.67" class="p">╝</text><text x="26.052" y="1.67" class="q">╩</text><text x="28.056" y="1.67" class="s">╩</text><text x="30.06" y="1.67" class="t">╝</text><text x="31.062" y="1.67" class="u">╚</text><text x="32.064" y="1.67" class="v">╝</text><text x="35.07" y="1.67" class="P">╩</text><text x="39.078" y="1.67" class="z">╩</text><text x="42.084" y="1.67" class="B">╩</text><text x="44.088" y="1.67" class="C">╩</text><text x="46.092" y="1.67" class="D">╩</text><text x="48.096" y="1.67" class="E">╝</text><text x="49.098" y="1.67" class="F">╚</text><text x="50.1" y="1.67" class="G">╝</text><text x="52.104" y="1.67" class="H">╚</text><text x="53.106" y="1.67" class="I">═</text><text x="54.108" y="1.67" class="J">╝</text><text x="61.122" y="1.67" class="R">╚</text><text x="62.124" y="1.67" class="K">═</text><text x="63.126" y="1.67" class="L">═</text><text x="66.132" y="1.67" class="S">╩</text><text x="69.138" y="1.67" class="N">╩</text><text x="71.142" y="1.67" class="O">╩</text></symbol><symbol id="a"><path fill="transparent" d="M0 0h120v17H0z"/></symbol></defs><path class="a" d="M0 0h120v34.736H0z"/><g style="animation-duration:.908204s;animation-iteration-count:infinite;animation-name:Y;animation-timing-function:steps(1,end)"><svg width="2160"><svg><use xlink:href="#a"/></svg><svg x="120"><use xlink:href="#a"/><use xlink:href="#1"/></svg><svg x="240"><use xlink:href="#a"/><text y="1.67" class="c">⠹</text></svg><svg x="360"><use xlink:href="#a"/></svg><svg x="480"><use xlink:href="#a"/></svg><svg x="600"><use xlink:href="#a"/><text x="1.002" y="6.012" class="d">╦</text><text x="5.01" y="6.012" class="e">╔</text><text x="6.012" y="6.012" class="f">═</text><text x="7.014" y="6.012" class="g">╗</text><text x="9.018" y="6.012" class="h">╔</text><text x="10.02" y="6.012" class="i">═</text><text x="11.022" y="6.012" class="j">╗</text><text x="13.026" y="6.012" class="k">╦</text><text x="14.028" y="6.012" class="l">═</text><text x="15.03" y="6.012" class="m">╗</text><text x="17.034" y="6.012" class="n">╔</text><text x="18.036" y="6.012" class="o">╗</text><text x="19.038" y="6.012" class="p">╔</text><text x="26.052" y="6.012" class="q">╔</text><text x="27.054" y="6.012" class="r">═</text><text x="28.056" y="6.012" class="s">╗</text><text x="30.06" y="6.012" class="t">╔</text><text x="31.062" y="6.012" class="u">╗</text><text x="32.064" y="6.012" class="v">╔</text><text x="34.068" y="6.012" class="w">╦</text><text x="36.072" y="6.012" class="x">╦</text><text x="38.076" y="6.012" class="y">╔</text><text x="39.078" y="6.012" class="z">╦</text><text x="40.08" y="6.012" class="A">╗</text><text x="42.084" y="6.012" class="B">╦</text><text x="44.088" y="6.012" class="C">╦</text><text x="46.092" y="6.012" class="D">╦</text></svg><svg x="720"><use xlink:href="#a"/><use xlink:href="#2" y="4.342"/><text x="1.002" y="8.183" class="d">║</text><text x="5.01" y="8.183" class="e">║</text><text x="6.012" y="8.183" class="f">╣</text><text x="9.018" y="8.183" class="h">╠</text><text x="10.02" y="8.183" class="i">═</text><text x="11.022" y="8.183" class="j">╣</text><text x="13.026" y="8.183" class="k">╠</text><text x="14.028" y="8.183" class="l">╦</text><text x="15.03" y="8.183" class="m">╝</text><text x="17.034" y="8.183" class="n">║</text><text x="18.036" y="8.183" class="o">║</text><text x="19.038" y="8.183" class="p">║</text></svg><svg x="840"><use xlink:href="#a"/><use xlink:href="#2" y="4.342"/><use xlink:href="#3" y="6.513"/><text x="1.002" y="10.354" class="d">╩</text><text x="2.004" y="10.354" class="V">═</text><text x="3.006" y="10.354" class="W">╝</text></svg><svg x="960"><use xlink:href="#a"/><use xlink:href="#2" y="4.342"/><use xlink:href="#3" y="6.513"/><text x="1.002" y="10.354" class="d">╩</text><text x="2.004" y="10.354" class="V">═</text><text x="3.006" y="10.354" class="W">╝</text><text x="5.01" y="10.354" class="e">╚</text><text x="6.012" y="10.354" class="f">═</text><text x="7.014" y="10.354" class="g">╝</text><text x="9.018" y="10.354" class="h">╩</text><text x="11.022" y="10.354" class="j">╩</text><text x="13.026" y="10.354" class="k">╩</text><text x="14.028" y="10.354" class="l">╚</text><text x="15.03" y="10.354" class="m">═</text><text x="17.034" y="10.354" class="n">╝</text><text x="18.036" y="10.354" class="o">╚</text><text x="19.038" y="10.354" class="p">╝</text><text x="26.052" y="10.354" class="q">╩</text><text x="28.056" y="10.354" class="s">╩</text><text x="30.06" y="10.354" class="t">╝</text><text x="31.062" y="10.354" class="u">╚</text><text x="32.064" y="10.354" class="v">╝</text><text x="35.07" y="10.354" class="P">╩</text><text x="39.078" y="10.354" class="z">╩</text><text x="42.084" y="10.354" class="B">╩</text><text x="44.088" y="10.354" class="C">╩</text><text x="46.092" y="10.354" class="D">╩</text><text x="48.096" y="10.354" class="E">╝</text><text x="49.098" y="10.354" class="F">╚</text><text x="50.1" y="10.354" class="G">╝</text><text x="52.104" y="10.354" class="H">╚</text></svg><svg x="1080"><use xlink:href="#a"/><use xlink:href="#2" y="4.342"/><use xlink:href="#3" y="6.513"/><use xlink:href="#4" y="8.684"/></svg><svg x="1200"><use xlink:href="#a"/><use xlink:href="#2" y="4.342"/><use xlink:href="#3" y="6.513"/><use xlink:href="#4" y="8.684"/></svg><svg x="1320"><use xlink:href="#a"/><use xlink:href="#2" y="4.342"/><use xlink:href="#3" y="6.513"/><use xlink:href="#4" y="8.684"/></svg><svg x="1440"><use xlink:href="#a"/><use xlink:href="#2" y="4.342"/><use xlink:href="#3" y="6.513"/><use xlink:href="#4" y="8.684"/></svg><svg x="1560"><use xlink:href="#a"/><use xlink:href="#2" y="4.342"/><use xlink:href="#3" y="6.513"/><use xlink:href="#4" y="8.684"/></svg><svg x="1680"><use xlink:href="#a"/><use xlink:href="#2" y="4.342"/><use xlink:href="#3" y="6.513"/><use xlink:href="#4" y="8.684"/></svg><svg x="1800"><use xlink:href="#a"/><use xlink:href="#2" y="4.342"/><use xlink:href="#3" y="6.513"/><use xlink:href="#4" y="8.684"/></svg><svg x="1920"><use xlink:href="#a"/><use xlink:href="#2" y="4.342"/><use xlink:href="#3" y="6.513"/><use xlink:href="#4" y="8.684"/><use xlink:href="#1" y="15.197"/></svg><svg x="2040"><use xlink:href="#a"/><use xlink:href="#2" y="4.342"/><use xlink:href="#3" y="6.513"/><use xlink:href="#4" y="8.684"/></svg></svg></g></g></svg></svg>